<svg viewBox="0 0 150 26" width="150" height="26" fill="#134BC5" xmlns="http://www.w3.org/2000/svg">
    <path d="M15.918 5.966c.094.196.17.377.244.58l-3.63 1.322a5 5 0 00-.69-1.18c-.684-.866-1.588-1.39-2.732-1.39-1.447 0-2.553.927-2.553 2.207 0 1.503 1.004 2.484 3.81 4.06 3.642 2.069 5.517 4.234 5.517 7.054 0 3.798-2.97 6.22-7.249 6.22-2.67 0-4.677-1.026-6.127-2.739a8.74 8.74 0 01-1.482-2.512A5.779 5.779 0 011 19.516l3.614-1.36a7.438 7.438 0 00.899 1.532c.831 1.085 1.854 1.744 3.079 1.744 1.684 0 2.834-1.043 2.834-2.55 0-1.617-1.001-2.551-4.198-4.363-3.313-1.889-5.13-4.125-5.13-6.751 0-3.393 2.967-5.835 6.904-5.835 2.582 0 4.482.894 5.815 2.388.467.523.83 1.084 1.1 1.645zM23.7 24.487h-4.35V8.09h4.35v16.398zM21.558 5.881c-1.44 0-2.607-1.093-2.607-2.44C18.95 2.091 20.118 1 21.558 1c1.44 0 2.606 1.092 2.606 2.44 0 1.348-1.167 2.44-2.606 2.44zm10.325 8.563v10.12h-4.134v-16.4h3.653l.206 2.288.318-.452c.96-1.363 2.491-2.098 4.367-2.098 2.072 0 3.665.907 4.526 2.582l.175.34.184-.336c.901-1.656 2.554-2.586 4.614-2.586 3.18 0 5.09 2.062 5.09 5.63v11.032h-4.134V14.546c0-2.136-.882-3.218-2.575-3.218-1.743 0-2.79 1.133-2.79 3.218v10.018h-4.135V14.546c0-2.136-.882-3.218-2.574-3.218-1.755 0-2.791 1.072-2.791 3.117zm26.38 9.934h-3.72V2.119h4.35v7.604l.354-.397c.92-1.034 2.294-1.585 3.991-1.585 3.906 0 6.018 2.11 6.018 6.012v4.936c0 3.882-2.235 6.093-6.126 6.093-1.95 0-3.437-.623-4.37-1.85l-.313-.41-.184 1.856zm.63-9.978v3.759c0 1.942 1.169 3.157 3.007 3.157s3.006-1.215 3.006-3.157v-3.758c0-1.942-1.168-3.158-3.006-3.158-1.838 0-3.007 1.216-3.007 3.157zM76.89 24.487h-4.35V8.09h4.35v16.398zM74.946 5.881c-1.44 0-2.607-1.093-2.607-2.44C72.34 2.091 73.507 1 74.946 1c1.44 0 2.607 1.092 2.607 2.44 0 1.348-1.167 2.44-2.607 2.44zm10.087 4.79c.974-1.735 2.694-2.675 5.02-2.763v4.107h-1.635c-2.206 0-3.546 1.358-3.546 3.824v8.704h-4.134V8.145h3.716l.256 3.102.323-.575zm21.71-4.125l-3.63 1.322a5.007 5.007 0 00-.69-1.18c-.684-.866-1.589-1.39-2.732-1.39-1.447 0-2.554.927-2.554 2.207 0 1.503 1.005 2.484 3.811 4.06 3.642 2.069 5.516 4.234 5.516 7.054 0 3.798-2.97 6.22-7.248 6.22-2.67 0-4.678-1.026-6.128-2.739a8.738 8.738 0 01-1.481-2.512 7.734 7.734 0 01-.026-.072l3.613-1.36a7.444 7.444 0 00.899 1.532c.832 1.085 1.855 1.744 3.08 1.744 1.683 0 2.833-1.043 2.833-2.55 0-1.617-1.001-2.551-4.197-4.363-3.313-1.889-5.13-4.125-5.13-6.751 0-3.393 2.966-5.835 6.904-5.835 2.582 0 4.482.894 5.815 2.388.467.523.83 1.084 1.1 1.645.095.196.171.377.245.58zm1.989 11.849v-3.851c0-4.048 2.929-6.642 7.317-6.642 4.356 0 7.18 2.497 7.18 6.512v3.851c0 4.038-2.951 6.642-7.318 6.642-4.369 0-7.179-2.477-7.179-6.512zm4.134-3.875v3.77c0 1.942 1.21 3.15 3.114 3.15s3.115-1.208 3.115-3.15v-3.77c0-1.943-1.211-3.152-3.115-3.152-1.904 0-3.114 1.21-3.114 3.152zm18.787-5.616h3.67v2.86h-3.67v12.73h-4.134v-12.73h-2.591v-2.86h2.591V6.737c0-3.12 1.875-4.804 5.197-4.804 1.106 0 2.036.086 2.798.228.265.05.489.103.673.156l.064.018-.462 2.924a9.9 9.9 0 00-1.777-.163c-1.592 0-2.359.692-2.359 2.256v1.552zm8.895-4.546h4.135v4.647H149v2.86h-4.317v7.664c0 1.403.688 2.005 2.142 2.005a11.031 11.031 0 001.769-.165l.389 3.279-.071.017a9.22 9.22 0 01-.704.136c-.793.124-1.757.199-2.894.199-3.053 0-4.766-1.583-4.766-4.502v-8.633h-3.023v-2.86h3.023V4.358z"></path>
</svg>